<svg enable-background="new 0 0 744.8 747.1" viewBox="0 0 744.8 747.1" xmlns="http://www.w3.org/2000/svg"><path d="m71.6 629.3-6.6-25.9c-11.6-4.9-23.5-9.2-35.6-12.8l-.8 12-3.4-13.2c-15-4.3-25.2-6.2-25.2-6.2s13.8 52.5 42.8 92.6l33.7 5.9-26.2 3.8c3.6 4.4 7.6 8.5 11.7 12.4 42.1 39.1 89 57 104.8 40.1s-5.6-62.4-47.7-101.5c-13.1-12.1-29.5-21.8-45.9-29.5z" fill="#f2f2f2"/><path d="m134 601.2 7.8-25.5c-7.4-10.2-15.4-20-23.9-29.4l-6.9 9.9 4-13.1c-10.6-11.4-18.4-18.3-18.4-18.3s-15.3 52.1-11.3 101.4l25.8 22.5-24.4-10.3c.9 5.6 2.1 11.2 3.6 16.7 15.8 55.2 46.7 94.8 69 88.5s27.4-56.3 11.6-111.6c-4.9-17.1-13.9-33.9-24-49z" fill="#f2f2f2"/><path d="m519.8 177h-4.1v-112.1c0-35.8-29-64.9-64.9-64.9h-237.5c-35.8 0-64.9 29-64.9 64.9v615c0 35.8 29 64.9 64.9 64.9h237.5c35.8 0 64.9-29 64.9-64.9v-423.1h4.1z" fill="#e6e6e6"/><path d="m453.4 16.9h-31c4.8 11.8-.8 25.2-12.6 30-2.8 1.1-5.7 1.7-8.7 1.7h-136.1c-12.7 0-23-10.3-23-23 0-3 .6-5.9 1.7-8.7h-29c-26.8 0-48.5 21.7-48.5 48.5v614.1c0 26.8 21.7 48.5 48.5 48.5h238.7c26.8 0 48.5-21.7 48.5-48.5v-614.2c-.1-26.7-21.7-48.4-48.5-48.4z" fill="#fff"/><path d="m303.7 261.5c0-8.7 4.7-16.8 12.2-21.2-11.7-6.8-26.6-2.7-33.4 8.9-6.8 11.7-2.7 26.6 8.9 33.4 7.6 4.4 16.9 4.4 24.5 0-7.6-4.3-12.2-12.4-12.2-21.1z" fill="#ccc"/><path d="m334.4 261.5c0-8.7 4.7-16.8 12.2-21.2-11.7-6.8-26.6-2.7-33.4 8.9-6.8 11.7-2.7 26.6 8.9 33.4 7.6 4.4 16.9 4.4 24.5 0-7.5-4.3-12.2-12.4-12.2-21.1z" fill="#ccc"/><circle cx="364.4" cy="261.5" fill="#f4acb7" r="24.5"/><path d="m405.3 337.9h-142.5c-2.8 0-5.1-2.3-5.1-5.1v-142.5c0-2.8 2.3-5.1 5.1-5.1h142.5c2.8 0 5.1 2.3 5.1 5.1v142.5c0 2.8-2.3 5.1-5.1 5.1zm-142.5-150.7c-1.7 0-3.1 1.4-3.1 3.1v142.5c0 1.7 1.4 3.1 3.1 3.1h142.5c1.7 0 3.1-1.4 3.1-3.1v-142.5c0-1.7-1.4-3.1-3.1-3.1z" fill="#ccc"/><path d="m218.6 447.1h218.6v2h-218.6z" fill="#ccc"/><circle cx="225.5" cy="427.4" fill="#f4acb7" r="6.9"/><path d="m218.6 516.1h218.6v2h-218.6z" fill="#ccc"/><g fill="#f4acb7"><circle cx="225.5" cy="496.4" r="6.9"/><path d="m433.1 594.7h-69.1c-2.5 0-4.5-2-4.5-4.5v-24.2c0-2.5 2-4.5 4.5-4.5h69.1c2.5 0 4.5 2 4.5 4.5v24.2c0 2.5-2 4.5-4.5 4.5z"/><circle cx="248" cy="427.4" r="6.9"/><circle cx="270.5" cy="427.4" r="6.9"/><circle cx="248" cy="496.4" r="6.9"/><circle cx="270.5" cy="496.4" r="6.9"/></g><path d="m742.1 747.1h-718c-1.5 0-2.8-.5-2.8-1.2s1.2-1.2 2.8-1.2h718c1.5 0 2.8.5 2.8 1.2s-1.3 1.2-2.8 1.2z" fill="#3f3d56"/><path d="m564.7 489.5c.5.2 1 .5 1.4.8l44.9-19.1 1.6-11.8 17.9-.1-1.1 27.1-59.2 15.7c-.1.4-.3.8-.4 1.2-2.4 5.1-8.5 7.3-13.6 4.9s-7.3-8.5-4.9-13.6c2.3-5.2 8.3-7.4 13.4-5.1z" fill="#ffb8b8"/><path d="m637 735h-12.3l-5.8-47.3h18.1z" fill="#ffb8b8"/><path d="m616 731.5h23.6v14.9h-38.5c0-8.2 6.6-14.9 14.9-14.9z" fill="#2f2e41"/><path d="m684.7 731.6-12.2 1.2-10.5-46.5 18-1.8z" fill="#ffb8b8"/><path d="m663.4 730.1 23.5-2.3 1.5 14.8-38.3 3.8c-.9-8.2 5.1-15.5 13.3-16.3z" fill="#2f2e41"/><circle cx="640.4" cy="384.6" fill="#ffb8b8" r="24.6"/><path d="m622 725.5c-2.2 0-4-1.6-4.4-3.7-6.3-35.2-27.1-150.4-27.6-153.6 0-.1 0-.1 0-.2v-8.6c0-.3.1-.6.3-.9l2.7-3.8c.3-.4.7-.6 1.1-.6 15.6-.7 66.8-2.9 69.3.2 2.5 3.1 1.6 12.5 1.4 14.4v.2l23 147c.4 2.4-1.3 4.7-3.7 5.1l-14.4 2.4c-2.2.4-4.3-1-5-3.1-4.4-14.2-19.3-61.9-24.5-80.4-.1-.3-.3-.4-.6-.3-.2.1-.4.3-.4.5.3 17.6.9 62.5 1.1 78v1.7c0 2.3-1.8 4.3-4.1 4.5l-13.8 1.3c-.1-.1-.3-.1-.4-.1z" fill="#2f2e41"/><path d="m624.8 418.8c-4.3 2.5-6.9 7.2-8.3 12-2.7 8.8-4.4 17.9-4.9 27.2l-1.6 27.6-19.3 73.2c16.7 14.1 26.3 10.9 48.8-.6s25 3.9 25 3.9l4.5-62.3 6.4-68c-1.4-1.7-3.1-3.3-4.9-4.7-12-9.3-27.7-12.7-42.4-9z" fill="#f4acb7"/><path d="m618.6 504.2c.5.2 1 .4 1.5.7l44.3-22.2.7-12 18.3-1.3 1 27.4-59.3 19.6c-1.3 5.6-7 9.2-12.6 7.8-5.6-1.3-9.2-7-7.8-12.6 1.3-5.6 7-9.2 12.6-7.8.4.2.8.3 1.3.4z" fill="#ffb8b8"/><path d="m675.2 432c10.9 3.9 12.8 45.6 12.8 45.6-12.8-7.1-28.2 4.5-28.2 4.5s-3.2-10.9-7.1-25c-2.4-8.1-.4-16.8 5.1-23.1.1-.1 6.5-5.9 17.4-2z" fill="#f4acb7"/><path d="m662.4 391.1c-3.1-2.4-7.2 2-7.2 2l-2.4-22s-15.3 1.8-25.1-.6-11.3 8.9-11.3 8.9c-.5-4.6-.6-9.2-.3-13.8.6-5.5 8.6-11 22.6-14.7s21.4 12.2 21.4 12.2c9.8 4.9 5.4 30.4 2.3 28z" fill="#2f2e41"/></svg>